<mxfile host="app.diagrams.net" agent="Mozilla/5.0 (Windows NT 10.0; Win64; x64) AppleWebKit/537.36 (KHTML, like Gecko) Chrome/132.0.0.0 Safari/537.36" version="26.0.11">
  <diagram name="Page-1" id="UORpscCcktTHppDCs9vY">
    <mxGraphModel dx="1434" dy="738" grid="1" gridSize="10" guides="1" tooltips="1" connect="1" arrows="1" fold="1" page="1" pageScale="1" pageWidth="1100" pageHeight="850" math="0" shadow="0">
      <root>
        <mxCell id="0" />
        <mxCell id="1" parent="0" />
        <mxCell id="6ebuS2h9PanVanneXWJN-6" style="edgeStyle=orthogonalEdgeStyle;rounded=0;orthogonalLoop=1;jettySize=auto;html=1;" edge="1" parent="1" source="6ebuS2h9PanVanneXWJN-1" target="6ebuS2h9PanVanneXWJN-5">
          <mxGeometry relative="1" as="geometry" />
        </mxCell>
        <mxCell id="6ebuS2h9PanVanneXWJN-1" value="Gera Assinatura Facial" style="rounded=1;whiteSpace=wrap;html=1;" vertex="1" parent="1">
          <mxGeometry x="90" y="90" width="120" height="60" as="geometry" />
        </mxCell>
        <mxCell id="6ebuS2h9PanVanneXWJN-3" value="" style="endArrow=classic;html=1;rounded=0;entryX=0;entryY=0.5;entryDx=0;entryDy=0;" edge="1" parent="1" source="6ebuS2h9PanVanneXWJN-2" target="6ebuS2h9PanVanneXWJN-1">
          <mxGeometry width="50" height="50" relative="1" as="geometry">
            <mxPoint x="40" y="120" as="sourcePoint" />
            <mxPoint x="90" y="70" as="targetPoint" />
          </mxGeometry>
        </mxCell>
        <mxCell id="6ebuS2h9PanVanneXWJN-9" style="edgeStyle=orthogonalEdgeStyle;rounded=0;orthogonalLoop=1;jettySize=auto;html=1;entryX=0;entryY=0.5;entryDx=0;entryDy=0;" edge="1" parent="1" source="6ebuS2h9PanVanneXWJN-5" target="6ebuS2h9PanVanneXWJN-8">
          <mxGeometry relative="1" as="geometry" />
        </mxCell>
        <mxCell id="6ebuS2h9PanVanneXWJN-5" value="Identifica landmarks principais do personagem" style="rounded=1;whiteSpace=wrap;html=1;" vertex="1" parent="1">
          <mxGeometry x="250" y="90" width="120" height="60" as="geometry" />
        </mxCell>
        <mxCell id="6ebuS2h9PanVanneXWJN-7" value="Início" style="text;html=1;align=center;verticalAlign=middle;whiteSpace=wrap;rounded=0;" vertex="1" parent="1">
          <mxGeometry x="10" y="130" width="60" height="30" as="geometry" />
        </mxCell>
        <mxCell id="6ebuS2h9PanVanneXWJN-13" style="edgeStyle=orthogonalEdgeStyle;rounded=0;orthogonalLoop=1;jettySize=auto;html=1;entryX=0;entryY=0.5;entryDx=0;entryDy=0;" edge="1" parent="1" source="6ebuS2h9PanVanneXWJN-8" target="6ebuS2h9PanVanneXWJN-12">
          <mxGeometry relative="1" as="geometry" />
        </mxCell>
        <mxCell id="6ebuS2h9PanVanneXWJN-15" style="edgeStyle=orthogonalEdgeStyle;rounded=0;orthogonalLoop=1;jettySize=auto;html=1;" edge="1" parent="1" source="6ebuS2h9PanVanneXWJN-8">
          <mxGeometry relative="1" as="geometry">
            <mxPoint x="460" y="190" as="targetPoint" />
          </mxGeometry>
        </mxCell>
        <mxCell id="6ebuS2h9PanVanneXWJN-8" value="Somente Cabeça?" style="rhombus;whiteSpace=wrap;html=1;" vertex="1" parent="1">
          <mxGeometry x="410" y="80" width="100" height="80" as="geometry" />
        </mxCell>
        <mxCell id="6ebuS2h9PanVanneXWJN-10" value="" style="endArrow=classic;html=1;rounded=0;entryX=0;entryY=0.5;entryDx=0;entryDy=0;" edge="1" parent="1" target="6ebuS2h9PanVanneXWJN-2">
          <mxGeometry width="50" height="50" relative="1" as="geometry">
            <mxPoint x="40" y="120" as="sourcePoint" />
            <mxPoint x="90" y="120" as="targetPoint" />
          </mxGeometry>
        </mxCell>
        <mxCell id="6ebuS2h9PanVanneXWJN-2" value="" style="ellipse;whiteSpace=wrap;html=1;aspect=fixed;" vertex="1" parent="1">
          <mxGeometry x="30" y="110" width="20" height="20" as="geometry" />
        </mxCell>
        <mxCell id="6ebuS2h9PanVanneXWJN-31" style="edgeStyle=orthogonalEdgeStyle;rounded=0;orthogonalLoop=1;jettySize=auto;html=1;" edge="1" parent="1" source="6ebuS2h9PanVanneXWJN-12" target="6ebuS2h9PanVanneXWJN-30">
          <mxGeometry relative="1" as="geometry" />
        </mxCell>
        <mxCell id="6ebuS2h9PanVanneXWJN-12" value="Identifica movimento de cabeças a partir do nariz" style="rounded=1;whiteSpace=wrap;html=1;" vertex="1" parent="1">
          <mxGeometry x="550" y="90" width="120" height="60" as="geometry" />
        </mxCell>
        <mxCell id="6ebuS2h9PanVanneXWJN-14" value="Sim" style="text;html=1;align=center;verticalAlign=middle;resizable=0;points=[];autosize=1;strokeColor=none;fillColor=none;" vertex="1" parent="1">
          <mxGeometry x="505" y="98" width="40" height="30" as="geometry" />
        </mxCell>
        <mxCell id="6ebuS2h9PanVanneXWJN-16" value="Não" style="text;html=1;align=center;verticalAlign=middle;resizable=0;points=[];autosize=1;strokeColor=none;fillColor=none;" vertex="1" parent="1">
          <mxGeometry x="460" y="160" width="50" height="30" as="geometry" />
        </mxCell>
        <mxCell id="6ebuS2h9PanVanneXWJN-19" style="edgeStyle=orthogonalEdgeStyle;rounded=0;orthogonalLoop=1;jettySize=auto;html=1;entryX=0;entryY=0.5;entryDx=0;entryDy=0;" edge="1" parent="1" source="6ebuS2h9PanVanneXWJN-17" target="6ebuS2h9PanVanneXWJN-18">
          <mxGeometry relative="1" as="geometry" />
        </mxCell>
        <mxCell id="6ebuS2h9PanVanneXWJN-22" style="edgeStyle=orthogonalEdgeStyle;rounded=0;orthogonalLoop=1;jettySize=auto;html=1;entryX=0.5;entryY=0;entryDx=0;entryDy=0;" edge="1" parent="1" source="6ebuS2h9PanVanneXWJN-17" target="6ebuS2h9PanVanneXWJN-20">
          <mxGeometry relative="1" as="geometry" />
        </mxCell>
        <mxCell id="6ebuS2h9PanVanneXWJN-17" value="Somente membros superiores" style="rhombus;whiteSpace=wrap;html=1;" vertex="1" parent="1">
          <mxGeometry x="410" y="190" width="100" height="80" as="geometry" />
        </mxCell>
        <mxCell id="6ebuS2h9PanVanneXWJN-32" value="" style="edgeStyle=orthogonalEdgeStyle;rounded=0;orthogonalLoop=1;jettySize=auto;html=1;" edge="1" parent="1" source="6ebuS2h9PanVanneXWJN-18" target="6ebuS2h9PanVanneXWJN-30">
          <mxGeometry relative="1" as="geometry" />
        </mxCell>
        <mxCell id="6ebuS2h9PanVanneXWJN-18" value="Identifica movimento de braços e danças a partir dos pulsos" style="rounded=1;whiteSpace=wrap;html=1;" vertex="1" parent="1">
          <mxGeometry x="550" y="200" width="120" height="60" as="geometry" />
        </mxCell>
        <mxCell id="6ebuS2h9PanVanneXWJN-25" style="edgeStyle=orthogonalEdgeStyle;rounded=0;orthogonalLoop=1;jettySize=auto;html=1;entryX=0;entryY=0.5;entryDx=0;entryDy=0;" edge="1" parent="1" source="6ebuS2h9PanVanneXWJN-20" target="6ebuS2h9PanVanneXWJN-24">
          <mxGeometry relative="1" as="geometry" />
        </mxCell>
        <mxCell id="6ebuS2h9PanVanneXWJN-28" style="edgeStyle=orthogonalEdgeStyle;rounded=0;orthogonalLoop=1;jettySize=auto;html=1;entryX=0.5;entryY=0;entryDx=0;entryDy=0;" edge="1" parent="1" source="6ebuS2h9PanVanneXWJN-20" target="6ebuS2h9PanVanneXWJN-27">
          <mxGeometry relative="1" as="geometry" />
        </mxCell>
        <mxCell id="6ebuS2h9PanVanneXWJN-20" value="Somente membros inferiores" style="rhombus;whiteSpace=wrap;html=1;" vertex="1" parent="1">
          <mxGeometry x="410" y="300" width="100" height="80" as="geometry" />
        </mxCell>
        <mxCell id="6ebuS2h9PanVanneXWJN-21" value="Sim" style="text;html=1;align=center;verticalAlign=middle;resizable=0;points=[];autosize=1;strokeColor=none;fillColor=none;" vertex="1" parent="1">
          <mxGeometry x="505" y="200" width="40" height="30" as="geometry" />
        </mxCell>
        <mxCell id="6ebuS2h9PanVanneXWJN-23" value="Não" style="text;html=1;align=center;verticalAlign=middle;resizable=0;points=[];autosize=1;strokeColor=none;fillColor=none;" vertex="1" parent="1">
          <mxGeometry x="460" y="270" width="50" height="30" as="geometry" />
        </mxCell>
        <mxCell id="6ebuS2h9PanVanneXWJN-33" value="" style="edgeStyle=orthogonalEdgeStyle;rounded=0;orthogonalLoop=1;jettySize=auto;html=1;" edge="1" parent="1" source="6ebuS2h9PanVanneXWJN-24" target="6ebuS2h9PanVanneXWJN-30">
          <mxGeometry relative="1" as="geometry">
            <Array as="points">
              <mxPoint x="710" y="340" />
              <mxPoint x="710" y="285" />
            </Array>
          </mxGeometry>
        </mxCell>
        <mxCell id="6ebuS2h9PanVanneXWJN-24" value="Identifica como sentado" style="rounded=1;whiteSpace=wrap;html=1;" vertex="1" parent="1">
          <mxGeometry x="545" y="310" width="120" height="60" as="geometry" />
        </mxCell>
        <mxCell id="6ebuS2h9PanVanneXWJN-26" value="Sim" style="text;html=1;align=center;verticalAlign=middle;resizable=0;points=[];autosize=1;strokeColor=none;fillColor=none;" vertex="1" parent="1">
          <mxGeometry x="505" y="310" width="40" height="30" as="geometry" />
        </mxCell>
        <mxCell id="6ebuS2h9PanVanneXWJN-34" style="edgeStyle=orthogonalEdgeStyle;rounded=0;orthogonalLoop=1;jettySize=auto;html=1;entryX=0.5;entryY=1;entryDx=0;entryDy=0;" edge="1" parent="1" source="6ebuS2h9PanVanneXWJN-27" target="6ebuS2h9PanVanneXWJN-30">
          <mxGeometry relative="1" as="geometry" />
        </mxCell>
        <mxCell id="6ebuS2h9PanVanneXWJN-27" value="Identifica se parado em pé, andando, dançando ou sentado" style="rounded=1;whiteSpace=wrap;html=1;" vertex="1" parent="1">
          <mxGeometry x="390" y="440" width="140" height="60" as="geometry" />
        </mxCell>
        <mxCell id="6ebuS2h9PanVanneXWJN-29" value="Não&amp;nbsp;&lt;div&gt;&lt;font style=&quot;color: rgb(0, 0, 255);&quot;&gt;(corpo completo)&lt;/font&gt;&lt;/div&gt;" style="text;html=1;align=left;verticalAlign=middle;resizable=0;points=[];autosize=1;strokeColor=none;fillColor=none;" vertex="1" parent="1">
          <mxGeometry x="470" y="390" width="110" height="40" as="geometry" />
        </mxCell>
        <mxCell id="6ebuS2h9PanVanneXWJN-40" style="edgeStyle=orthogonalEdgeStyle;rounded=0;orthogonalLoop=1;jettySize=auto;html=1;entryX=0;entryY=0.5;entryDx=0;entryDy=0;" edge="1" parent="1" source="6ebuS2h9PanVanneXWJN-30" target="6ebuS2h9PanVanneXWJN-36">
          <mxGeometry relative="1" as="geometry" />
        </mxCell>
        <mxCell id="6ebuS2h9PanVanneXWJN-30" value="&amp;nbsp;Captura detalhes sobre o indivíduo:&lt;div&gt;&lt;ul&gt;&lt;li&gt;gênero&lt;/li&gt;&lt;li&gt;cor da roupa&lt;/li&gt;&lt;li&gt;emoção dominante&lt;/li&gt;&lt;/ul&gt;&lt;div&gt;&amp;nbsp; &amp;nbsp;Gera relatório&lt;/div&gt;&lt;/div&gt;" style="rounded=1;whiteSpace=wrap;html=1;align=left;" vertex="1" parent="1">
          <mxGeometry x="750" y="235" width="230" height="100" as="geometry" />
        </mxCell>
        <mxCell id="6ebuS2h9PanVanneXWJN-35" value="&lt;h1 style=&quot;margin-top: 0px;&quot;&gt;&lt;span style=&quot;color: light-dark(rgb(0, 0, 0), rgb(255, 255, 255));&quot;&gt;&lt;font style=&quot;font-size: 14px;&quot;&gt;Assinatura Facial&lt;/font&gt;&lt;/span&gt;&lt;/h1&gt;&lt;h1 style=&quot;margin-top: 0px;&quot;&gt;&lt;span style=&quot;background-color: light-dark(rgb(213, 232, 212), rgb(31, 47, 30)); color: light-dark(rgb(0, 0, 0), rgb(255, 255, 255)); font-size: 12px; font-weight: normal;&quot;&gt;Para cada frame é recortado a face do personagem e gerado ID para armazenamento de informações. O objetivo é suavizar temporal dos frames e consequente contagem dos movimentos.&lt;/span&gt;&lt;/h1&gt;" style="text;html=1;whiteSpace=wrap;overflow=hidden;rounded=0;labelBackgroundColor=#D5E8D4;" vertex="1" parent="1">
          <mxGeometry x="80" y="170" width="280" height="180" as="geometry" />
        </mxCell>
        <mxCell id="6ebuS2h9PanVanneXWJN-36" value="" style="ellipse;whiteSpace=wrap;html=1;aspect=fixed;labelBackgroundColor=#33001A;fillColor=#33001A;" vertex="1" parent="1">
          <mxGeometry x="1025" y="275" width="20" height="20" as="geometry" />
        </mxCell>
        <mxCell id="6ebuS2h9PanVanneXWJN-38" value="Fim" style="text;html=1;align=center;verticalAlign=middle;whiteSpace=wrap;rounded=0;" vertex="1" parent="1">
          <mxGeometry x="1005" y="295" width="60" height="30" as="geometry" />
        </mxCell>
      </root>
    </mxGraphModel>
  </diagram>
</mxfile>
